<svg xmlns="http://www.w3.org/2000/svg" xmlns:xlink="http://www.w3.org/1999/xlink" preserveAspectRatio="xMidYMid meet" version="1.0" viewBox="-1.7 -0.4 478.1 422.3" zoomAndPan="magnify" style="fill: rgb(0, 0, 0);" original_string_length="35629"><g id="__id150_sd1kdtvsg4"><path d="M476.327,108.171l-0.002,0.1c-0.506,28.49-15.196,55.142-27.938,75.178 c-18.241,28.986-40.847,55.626-67.187,79.179c-1.391,1.109-2.748,2.216-4.105,3.322c-3.366,2.744-6.848,5.582-10.472,8.128 c-1.181,0.582-2.406,1.643-3.705,2.765c-2.066,1.786-4.48,3.874-6.853,3.874c-1.063,0-2.118-0.42-3.13-1.476 c-0.662-0.829-0.907-1.7-0.758-2.623c0.471-2.899,4.749-5.686,8.523-8.144c1.831-1.193,3.562-2.319,4.354-3.177 c8.026-5.982,15.298-12.612,21.97-18.896c3.597-3.628,7.113-7.274,10.454-10.841c-0.98-0.195-1.83-0.75-2.384-1.585l-0.05-0.098 c-1.284-3.361-2.493-6.831-3.663-10.187c-3.524-10.109-7.168-20.561-13.379-29.61c-4.604-1.17-14.433-16.874-14.89-21.444 c-3.802-6.157-7.888-12.67-12.396-18.798c-4.267-0.758-11.078-9.254-17.1-16.766c-3.362-4.195-6.539-8.157-8.72-10.064l-0.1-0.119 c-0.69-1.151-2.231-2.524-3.862-3.978c-2.396-2.134-4.865-4.334-5.592-6.558c-0.899,0.354-1.872,0.404-2.743,0.129 c-0.992-0.314-1.772-1.022-2.256-2.047c-0.88-1.986-2.086-4.111-4.403-4.896l-0.114-0.056c-1.799-1.183-3.688-2.322-5.516-3.424 c-4.759-2.87-9.678-5.837-13.646-9.931c-5.155-0.366-6.569-2.764-6.937-4.335c-0.277-0.143-0.562-0.286-0.849-0.43 c-2.596-1.308-5.48-2.76-5.94-5.498c-0.81,1.475-1.445,2.958-1.927,4.491c1.155,1.666,0.609,3.577-0.487,4.774 c-1.148,1.255-3.133,1.976-4.974,0.757c-1.777-1.73-2.608-3.773-2.545-6.134c0.243-9.042,13.413-20.637,20.487-26.867 c0.805-0.708,1.519-1.336,2.106-1.869c16.631-13.769,36.98-24.467,62.231-32.722c5.518-1.812,11.161-3.548,16.619-5.226l5.107-1.574 c1.022-0.209,2.379-0.647,3.814-1.111c4.357-1.408,9.78-3.162,12.312-1.009c1.16,0.987,1.566,2.682,1.207,5.037l-0.054,0.161 c-6.345,11.837-15.594,21.999-24.538,31.827l-1.051,1.156c0.646-0.274,1.295-0.547,1.942-0.82c2.546-1.071,5.179-2.179,7.66-3.38 c16.413-6.793,33.31-11.866,50.245-15.088c11.003-2.203,22.551-3.806,34.318-4.765c1.374-0.01,2.984-0.229,4.689-0.46 c4.172-0.567,8.899-1.21,11.745,0.968c1.318,1.008,2.121,2.553,2.388,4.591c0.589,7.615-2.581,14.658-5.646,21.468 c-0.774,1.721-1.575,3.5-2.285,5.231c-6.886,14.799-14.087,29.211-21.413,42.859l-0.94,1.732c-1.636,3.015-3.273,6.033-4.934,9.038 c2.144-1.016,4.291-2.031,6.436-3.041l1.132-0.534c5.176-2.439,10.527-4.961,15.818-7.383l0.006-0.003 c0.542-0.239,1.136-0.528,1.763-0.833c2.924-1.423,6.565-3.193,9.312-2.124c1.249,0.485,2.192,1.516,2.804,3.063L476.327,108.171z M121.847,33.965l-0.148-1.243l0-0.005c-0.91-7.063-2.082-14.057-3.32-21.261c-0.652-2.085-2.081-3.288-3.865-3.271 c-2.256,0.008-4.53,1.893-5.251,4.293c-2.69,5.012-5.166,10.52-7.813,17.401c-0.21,0.918-0.669,2.065-1.154,3.278 c-1.149,2.873-2.452,6.129-1.375,8.453c0.483,1.042,1.408,1.798,2.81,2.262c1.111,0.217,2.151-0.013,3.012-0.664 c0.71-0.538,1.27-1.344,1.615-2.291c0.065,1.023,0.311,1.962,0.885,2.706c0.626,0.81,1.583,1.29,2.873,1.427 c1.138,0.056,2.272-0.383,3.061-1.195c0.618-0.1,1.215-0.356,1.733-0.739c0.381,3.071,0.803,6.323,1.302,9.568 c0.168,1.141,0.618,2.014,1.361,2.656c0.687,0.641,1.575,0.969,2.504,0.969c0.657,0,1.334-0.165,1.975-0.499 c1.511-0.788,2.344-2.303,2.122-3.863C123.276,45.971,122.549,39.867,121.847,33.965z M53.124,47.593l-0.031-0.017 c-1.254-0.614-2.454-1.485-3.614-2.327c-1.765-1.281-3.59-2.606-5.716-3.131l-0.121-0.015c-2.168,0.001-4,1.833-3.995,4.075 c0.472,3.152,3.259,4.663,5.954,6.123c1.274,0.691,2.479,1.343,3.477,2.196c0.66,0.399,1.348,0.6,2.027,0.6 c0.597,0,1.188-0.155,1.745-0.466c1.315-0.734,2.207-2.244,2.219-3.757C55.081,49.493,54.39,48.328,53.124,47.593z M44.895,59.04 l-0.042-0.006l-0.042,0c-1.148,0.022-2.884-0.41-4.727-0.864c-3.559-0.877-7.594-1.872-9.746-0.296 c-0.876,0.643-1.365,1.654-1.453,3.04c0.014,4.063,5.571,4.693,10.037,5.199c1.885,0.214,3.665,0.416,4.773,0.828l0.109,0.027 c0.208,0.027,0.41,0.041,0.604,0.041c2.187,0,3.562-1.651,3.816-3.43C48.504,61.621,47.451,59.434,44.895,59.04z M37.503,73.684 c-1.538,0.355-2.987,0.69-4.137,0.619c-1.198-0.104-2.386,0.298-3.263,1.106c-0.83,0.763-1.284,1.795-1.279,2.925 c0.054,1.318,0.513,2.326,1.363,2.995c0.917,0.721,2.181,0.955,3.49,0.954c1.526,0,3.113-0.317,4.281-0.551 c0.58-0.128,1.259-0.216,1.979-0.31c2.902-0.377,6.876-0.895,6.472-5.075C45.274,71.892,40.966,72.885,37.503,73.684z M146.136,19.724l-0.044-0.01c-4.285-0.774-5.282,3.344-6.081,6.654c-0.298,1.237-0.581,2.406-1.016,3.33 c-0.306,0.955-0.195,1.998,0.313,2.936c0.536,0.989,1.439,1.72,2.516,2.013c0.365,0.069,0.706,0.102,1.025,0.102 c3.421,0,4.331-3.743,5.074-6.802c0.296-1.22,0.577-2.373,0.998-3.28c0.304-0.959,0.192-2.004-0.317-2.941 C148.07,20.739,147.17,20.01,146.136,19.724z M162.951,29.238c-0.8-0.638-1.824-0.921-2.878-0.798 c-1.083,0.126-2.08,0.679-2.753,1.542c-0.464,0.678-1.16,1.43-1.896,2.226c-1.721,1.859-3.671,3.966-3.581,6.165 c0.043,1.04,0.542,2.005,1.552,2.921c0.857,0.554,1.647,0.789,2.38,0.789c2.351,0,4.107-2.419,5.587-4.458 c0.77-1.061,1.498-2.063,2.291-2.753c0.642-0.732,0.94-1.712,0.839-2.76C164.382,30.975,163.806,29.901,162.951,29.238z" style="fill: rgb(255, 169, 83);"/></g><g id="__id151_sd1kdtvsg4"><path d="M423.58,95.749c-5.232,15.304-12.948,30.876-24.215,48.847c4.011-2.065,8.642-3.885,13.577-3.654 l0.106,0.017c3.432,0.921,5.757,2.819,6.911,5.641c4.089,9.996-7.573,29.815-14.541,41.656c-1.778,3.022-3.314,5.632-4.205,7.42 c-9.227,15.772-16.983,28.956-24.897,42.133c-0.519,0.864-1.375,1.475-2.413,1.716c-0.316,0.073-0.637,0.109-0.954,0.109 c-0.775,0-1.534-0.215-2.173-0.628c-1.818-1.18-2.342-3.603-1.192-5.518c5.755-9.604,10.92-18.294,15.782-26.552 c-0.749-0.67-1.172-1.568-1.201-2.57c-1.518-7.215-6.089-13.307-10.51-19.198l-0.757-1.011c-1.698,2.685-3.351,5.398-4.915,8.076 c-0.505,0.86-1.352,1.469-2.385,1.714c-1.101,0.262-2.251,0.075-3.158-0.512c-1.826-1.185-2.34-3.554-1.195-5.512 c1.936-3.324,4.114-6.851,6.654-10.774c-1.646-2.393-3.272-4.849-4.848-7.226c-4.304-6.497-8.754-13.215-13.964-19.202 c-3.919-2.546-7.521-5.654-11.003-8.66c-1.979-1.708-4.026-3.475-6.101-5.11c-0.723-0.782-1.745-1.561-2.827-2.386 c-2.322-1.769-4.954-3.773-5.19-6.188c-0.096-0.985,0.217-1.96,0.931-2.906c-2.441-1.921-4.997-3.788-7.472-5.596 c-4.711-3.441-9.578-6.997-13.881-11.082c-0.374,0.441-0.742,0.886-1.107,1.336c-0.183,1.997-1.87,3.614-3.836,3.64l-0.059,0 l-0.058-0.013c-2.318-0.519-3.693-1.543-4.086-3.044c-1.17-4.478,7.105-11.904,12.049-16.341c1.09-0.978,2.031-1.822,2.566-2.37 c1.115-0.87,2.252-1.767,3.448-2.71c8.732-6.889,20.691-16.324,30.401-17.783l0.126-0.019l0.119,0.043 c1.909,0.693,3.143,1.853,3.663,3.447c1.538,4.704-3.384,12.048-7.34,17.95c-0.983,1.468-1.879,2.803-2.549,3.92 c22.905-12.999,47.746-25.668,74.477-31.365c6.803-1.704,11.64-0.969,14.372,2.188C431.483,74.321,426.143,89.522,423.58,95.749z M119.758,1.109l-0.01-0.006c-2.339-1.417-4.878-1.471-6.967-0.146c-2.169,1.376-3.453,3.962-3.193,6.434 c0.247,2.353,1.808,4.178,4.393,5.139c0.733,0.276,1.442,0.4,2.118,0.4c2.534,0,4.584-1.747,5.584-3.745 C122.934,6.684,122.866,3.09,119.758,1.109z" style="fill: rgb(246, 108, 142);"/></g><g id="__id152_sd1kdtvsg4"><path d="M241.421,79.821c1.07-0.527,2.146-1.051,3.221-1.575l0.505,0.86l-2.829,1.98l-1.899-0.771L241.421,79.821z M449.647,272.277c-0.711-1.272-1.994-2.102-3.432-2.217l-0.035-0.003l-0.036,0.002c-2.788,0.174-4.916,2.016-6.974,3.796 c-1.129,0.977-2.195,1.899-3.408,2.597c-9.275,6.818-17.058,12.063-24.497,16.509c-16.271,9.976-35.058,19.435-58.982,29.692 c7.27-5.912,14.525-12.103,21.611-18.439c8.342-7.571,16.482-15.633,24.354-23.429l2.903-2.875c1.298-1.255,1.58-2.973,0.751-4.51 c-0.544-10.105-2.185-21.096-5.164-34.588c-5.519-22.095-15.517-43.61-29.716-63.95l-0.523-0.75l-0.349,0.845 c-0.545,1.317-1.787,2.203-3.093,2.203c-1.975,0-3.575-1.482-3.646-3.382c0-0.002,0-0.005,0-0.008l3.324-3.609l0.028,0 c0.371,0,0.735,0.051,1.083,0.152l0.893,0.259l-0.275-0.887c-0.125-0.403-0.177-0.821-0.152-1.247 c4.146-4.533,8.963-9.905,13.37-15.489c5.977-7.688,12.042-16.088,15.901-25.379c1.268-2.359,2.254-4.609,3.035-6.969 c0.059-0.418,0.09-0.805,0.098-1.178c0.032-0.103,0.063-0.207,0.094-0.31l0.062-0.205c0.65-2.141-0.467-4.355-2.545-5.042 c-0.919-0.302-1.956-0.244-2.867,0.154c-0.239,0.027-0.479,0.059-0.736,0.095c-1.513,0.283-2.997,0.68-4.468,1.074l-0.187,0.065 c-1.482,0.517-3.015,1.052-4.503,1.686c-0.397,0.171-0.794,0.343-1.218,0.522l-0.802,0.391c-2.577,1.388-5.5,2.961-8.346,4.613 c-3.254,1.888-6.685,3.973-11.124,6.759c-3.421,2.148-6.995,4.573-10.926,7.413c-2.98,2.154-6.052,4.631-9.665,7.794 c-1.197,1.045-2.409,2.074-3.622,3.097c-0.08,0.066-0.16,0.129-0.244,0.188c-0.077,0.055-0.157,0.106-0.248,0.156 c-0.087,0.048-0.177,0.093-0.252,0.128c-0.089,0.038-0.179,0.076-0.275,0.109c-0.106,0.037-0.213,0.07-0.331,0.096 c-0.423,0.103-0.897,0.11-1.322,0.062c-0.351-0.054-0.682-0.15-0.983-0.286l-0.043-0.019c-0.091-0.043-0.179-0.09-0.265-0.137 c-0.246-0.138-0.478-0.311-0.688-0.514c-0.093-0.089-0.186-0.189-0.271-0.292c-0.048-0.058-0.093-0.12-0.151-0.203 c-0.025-0.033-0.048-0.068-0.098-0.149c-0.021-0.03-0.039-0.062-0.059-0.095l-0.431,0.252l0,0l0.358-0.385l-0.061-0.117 c-0.08-0.173-0.147-0.345-0.19-0.525l-0.047-0.173c-0.01-0.04-0.021-0.079-0.025-0.12l-0.021-0.12 c-0.189-1.222,0.287-2.483,1.242-3.292c0.732-0.618,1.456-1.241,2.177-1.863l0.132-0.114l0.032-0.172 c0.144-0.764,0.516-1.414,1.075-1.88l0.425-0.354l-0.396-0.387c-18.475-18.068-41.171-35.651-67.47-52.268 c-3.998-2.368-7.551-4.359-10.863-6.087l-0.121-0.063l-0.137,0.007c-0.68,0.036-1.364,0.086-2.009,0.14l-0.105,0.008 c-0.311,0.04-0.622,0.079-1.024,0.144c-0.322,0.11-0.645,0.22-0.981,0.339l-0.235,0.092c-0.487,0.189-0.976,0.379-1.461,0.574 l-1.534,1.208c-0.485,0.393-0.975,0.777-1.468,1.157l-0.646,0.499l0.48,0.228l-10.253,8.656c-1.784,1.941-8.022,6.756-16.648,13.349 c-0.635,0.125-1.245,0.396-1.771,0.789c-0.129,0.096-0.258,0.193-0.387,0.29c11.96-15.152,26.261-32.365,42.862-48.097 c1.8-1.6,5.939-5.708,5.499-9.311c-0.184-1.499-1.127-2.705-2.806-3.584l-0.191-0.056c-5.478-0.449-10.958,1.362-16.256,3.114 c-2.115,0.699-4.302,1.422-6.444,1.978c-7.613,2.565-15.096,5.668-22.256,9.23c2.133-10.858-0.021-23.708-9.849-27.215 c-4.176-1.924-11.215,1.409-15.846,5.834c-2.488-3.372-5.944-4.718-9.346-3.604c-3.558,1.165-7.031,5.232-6.766,11.713 c0.094,1.158,0.04,2.562-0.017,4.049c-0.109,2.859-0.233,6.085,0.675,8.581c-1.592,1.96-3.228,3.903-4.864,5.776 c-4.964,5.646-11.461,12.76-18.935,19.301c0.797-1.429,1.491-2.95,2.103-4.289c0.408-0.895,0.761-1.668,1.101-2.318 c2.026-5.784,1.727-12.631-0.842-19.281c-2.337-5.966-7.601-10.37-13.754-11.496c-1.488-0.224-4.345-0.53-7.027-0.125 c-5.571-4.699-12.048-7.917-18.754-9.316c-0.573-0.437-1.249-0.702-1.962-0.781C94.6,31.839,72.425,42.718,63.01,61.773 c-3.711,6.962-5.378,15.135-5.097,24.979c-5.113,5.954-6.332,14.641-3.175,22.726c3.055,7.826,9.412,12.983,17.028,13.798 c2.642,0.159,5.034-0.792,6.955-2.757c2.621,1.795,5.42,3.319,8.344,4.542c-4.653,1.546-9.342,2.708-13.95,3.458 c-8.439,1.572-17.622,2.122-28.87,1.729c-0.271-0.575-0.543-1.123-0.792-1.622l-0.382-0.771c-3.015-6.844-9.522-9.33-14.114-8.202 c-4.474,1.104-6.984,5.109-6.799,10.776c-8.583-1.991-17.599-2.724-20.677,5.646c-3.212,7.537-1.062,16.557,5.128,21.458 c14.212,10.465,33.922,15.383,60.256,15.078c6.626-0.198,13.342-0.77,19.836-1.323c1.384-0.118,2.768-0.236,4.152-0.351 c0.411-0.034,0.813-0.144,1.188-0.321c0.231,0.656,0.479,1.314,0.723,1.964c0.335,0.893,0.665,1.77,0.918,2.517 c2.312,17.149,5.579,34.239,9.708,50.801c-2.717,4.109-5.427,8.221-8.135,12.344l-0.205,0.317l0.419,0.272l-0.489-0.166 l-0.095,0.146l-0.002-0.001l-2.009,3.075c-1.007,1.615-2.009,3.231-3.012,4.849l-1.85,2.983c-0.5,0.853-1.006,1.703-1.513,2.554 c-1.117,1.876-2.271,3.815-3.349,5.757c-0.432,0.776-0.869,1.552-1.305,2.327c-1.306,2.32-2.657,4.721-3.884,7.14l-3.015,5.953 c-0.34,0.671-0.661,1.354-0.975,2.038l-0.089,0.195l0.08,0.199c0.251,0.627,0.497,1.255,0.735,1.887 c0.7,1.862,1.391,3.73,2.08,5.597l0.205,0.555c0.229,0.614,0.231,1.297,0.006,1.972l-0.06,0.179l0.073,0.174 c0.346,0.822,0.79,1.892,1.202,2.98l0.072,0.189c0.001,0.003,0.002,0.007,0.004,0.011l0.008-0.004 c0.274,0.735,0.474,1.512,0.392,2.312c-0.078,0.758-0.417,1.463-1.038,2.157c-0.219,0.248-0.486,0.464-0.792,0.64l-0.354,0.204 l0.129,0.388c0.221,0.662,0.426,1.333,0.624,2.004c0.356,1.198,0.431,2.432,0.227,3.771c-0.268,1.788-1.713,3.091-3.445,3.098 c-0.178,0.005-0.355-0.004-0.529-0.015l-0.708-0.044l0.311,1.081c0.438,1.525,0.875,3.048,1.302,4.574 c0.679,2.409,1.32,4.971,1.074,7.479c-0.167,1.688-1.125,3.66-2.884,4.265l-0.229,0.078l-0.08,0.229 c-0.217,0.618-0.602,1.159-1.112,1.562c-0.726,0.575-1.694,0.83-2.65,0.712c-0.927-0.118-1.73-0.57-2.261-1.273 c-1.344-1.781-2.267-3.399-2.904-5.089c-0.214-0.572-0.424-1.144-0.626-1.715l-1.146-3.242l0.245,4.692 c0.032,0.664,0.064,1.331,0.14,1.987l0.879,7.914l0.02-0.003c0.632,4.354,1.271,8.703,1.924,13.049 c0.24,1.599,0.512,3.41,0.648,5.205c0.097,1.302,0.208,2.777,0.083,4.188c-0.098,1.103-0.325,2.153-0.714,3.306 c-0.27,0.8-0.882,1.662-1.561,2.198c-0.696,0.555-1.538,0.882-2.824,1.073l-0.455,0.041v1.266c0,4.625,0,9.245-0.008,13.867 l0.001,2.647c0.004,3.119,0.007,6.345-0.075,9.511l-0.195,7.438c-0.065,2.538-0.284,5.129-0.651,7.699 c-0.204,1.424-0.436,2.508-0.752,3.517c-0.369,1.184-1.134,2.12-2.023,3.136c-0.998,1.138-2.798,1.462-4.211,0.787 c-1.006-0.475-1.669-0.997-2.085-1.642c-0.633-0.987-0.914-2.196-1.104-3.248c-0.162-0.908-0.281-1.808-0.41-2.878l-0.081-0.67 l-0.617,0.271c-0.085,0.038-0.17,0.072-0.259,0.103l-0.368,0.127l0.033,0.388c0.385,4.526,0.914,9.148,1.572,13.729 c0.142,1.159,0.882,2.208,1.986,2.818c0.244,0.221,0.52,0.435,0.842,0.655l0.098,0.052c11.762,4.65,24.755,4.694,37.321,4.736 c3.611,0.012,7.345,0.024,10.95,0.15c2.917,0.086,5.865,0.129,8.761,0.129c60.079,0,121.321-18.449,182.027-54.832 c8.1,7.351,19.396,10.491,28.373,12.408c22.551,4.418,48.325-2.584,72.588-19.717c28.046-20.69,43.989-53.622,58.051-82.667 C450.346,274.839,450.313,273.471,449.647,272.277z" style="fill: rgb(197, 202, 233);"/></g><g id="__id153_sd1kdtvsg4"><path d="M364.868,331.492l3.32-2.165v0.598l-0.112,0.116l-1.312,0.836c-0.542,0.348-1.086,0.695-1.625,1.036 L364.868,331.492z M410.786,287.364l-0.104-1.054l-0.388,0.589c-0.088,0.135-0.181,0.27-0.272,0.4 c-0.148,0.21-0.296,0.416-0.448,0.626l0.385,0.317L410.786,287.364z M442.906,272.749c-1.277-0.97-2.898-1.075-4.125-0.265 l-0.007,0.005c-25.31,17.847-50.971,32.358-76.271,43.135c-1.326,0.574-2.653,1.164-3.978,1.76c0.056-0.046,0.112-0.091,0.168-0.137 c2.945-2.404,5.835-4.719,9.037-7.279c1.309-1.044,2.61-2.103,3.908-3.165l1.05-0.852c1.002-0.811,2.037-1.648,3.035-2.496 l1.789-1.514c1.301-1.101,2.601-2.2,3.903-3.299c0.981-0.832,1.953-1.702,2.893-2.543l2.035-1.823c0.758-0.68,1.516-1.359,2.28-2.04 c4.865-4.561,9.479-9.088,13.718-13.461l0.009,0.043l0.865-0.869c0.996-1.002,1.984-2.047,2.939-3.058 c0.467-0.495,0.935-0.99,1.404-1.481c0.419-0.438,0.838-0.881,1.252-1.327l0.084-0.09l-0.02-0.121 c-6.297-38.16-21.193-75.203-43.08-107.124l-0.16-0.234l-1.229,1.094c-0.679,0.604-1.356,1.207-2.029,1.812l-0.291,0.259 c-6.845,6.161-14.814,13.311-22.782,20.204c-1.19,1.032-2.379,2.067-3.566,3.103c-2.892,2.521-5.882,5.128-8.871,7.628 c-1.412,1.181-2.827,2.357-4.242,3.534c-2.922,2.429-5.943,4.94-8.881,7.453c-1.065,0.911-2.134,1.819-3.201,2.727 c-1.647,1.399-3.294,2.799-4.929,4.212l-0.178,0.153l0.652,0.868c0.746,1.004,1.477,2.038,2.223,3.097 c1.578,2.227,3.156,4.457,4.734,6.688c0.635,0.896,1.257,1.827,1.858,2.729l1.7,2.544c0.982,1.471,1.965,2.943,2.949,4.413 c0.69,1.035,1.364,2.112,2.017,3.153c0.312,0.501,0.626,1.001,0.941,1.498c0.247,0.39,0.497,0.777,0.746,1.166 c0.654,1.019,1.331,2.071,1.957,3.125l3.809,6.413c0.254,0.432,0.492,0.873,0.73,1.314l2.147,3.985 c0.974,1.811,1.882,3.698,2.76,5.523l0.719,1.49c0.161,0.335,0.305,0.681,0.447,1.023c0.07,0.17,0.141,0.339,0.213,0.506 l1.102,2.556c0.396,0.911,0.781,1.893,1.19,3.029c8.288,16.387,14.479,31.481,18.93,46.141c-2.718,1.233-5.421,2.487-8.067,3.719 c-5.448,2.537-11.082,5.161-16.674,7.483c-1.146,0.206-2.152,0.877-2.76,1.841c-0.562,0.893-0.719,1.939-0.428,2.984 c0.794,1.758,2.065,2.649,3.78,2.649c2.056-0.001,4.506-1.27,6.667-2.389c1.331-0.689,2.589-1.34,3.668-1.66 c10.724-5.041,21.766-9.993,31.51-14.362c22.314-10.213,41.799-21.307,59.58-33.927c1.093-0.921,2.438-1.701,3.739-2.456 c2.331-1.353,4.742-2.751,6.021-5.116C444.755,275.298,444.209,273.738,442.906,272.749z M174.942,141.597 c-0.675,0.658-1.045,1.569-1.042,2.566c0.003,1.046,0.42,2.045,1.168,2.762c0.784,0.587,1.612,0.885,2.461,0.885 c2.591,0,4.947-2.662,7.224-5.235c1.311-1.481,2.549-2.88,3.742-3.629l0.417-0.378c3.734-3.39,7.594-6.895,11.529-10.197 c2.958-2.592,6.118-5.273,9.934-8.43l0.352,0.246c0.9,0.629,1.831,1.279,2.709,1.969c1.726,1.355,3.452,2.714,5.176,4.07 l2.152,1.694c0.604,0.475,1.206,0.949,1.808,1.424c0.011,0.01,0.024,0.021,0.045,0.036c0.007,0.005,0.015,0.011,0.021,0.017 l0.001-0.001l0.004,0.005v0l0.419,0.419v-0.084c0.734,0.584,1.425,1.156,2.102,1.74l11.164,9.672 c0.566,0.491,1.116,1.002,1.665,1.514c0.249,0.231,0.498,0.463,0.748,0.692c3.781,3.48,7.559,6.957,11.34,10.434 c0.534,0.491,1.059,1.011,1.565,1.515l0.389,0.386c1.922,1.891,3.84,3.781,5.758,5.676c1.887,1.859,3.773,3.718,5.66,5.582 l0.224,0.221c0.542,0.534,1.102,1.086,1.629,1.651l10.637,11.395c0.214,0.229,0.43,0.455,0.646,0.682 c0.52,0.544,1.057,1.107,1.549,1.688l1.33,1.56c0.963,1.13,1.927,2.261,2.893,3.39l2.602,3.051l0.19-0.165 c4.185-3.623,7.957-6.755,11.529-9.575c4.989-3.931,9.822-7.785,13.893-11.036c3.522-2.812,7.038-5.751,10.438-8.594l2.401-2.007 c3.263-2.72,6.521-5.449,9.779-8.179l4.783-4.005c2.66-2.23,5.358-4.412,8.356-6.829l0.203-0.165l-0.173-0.196 c-16.513-18.653-35.334-34.333-55.941-46.604c-9.794-5.893-18.12-10.119-26.232-13.31c-0.847-0.212-1.816-0.638-2.845-1.088 c-2.431-1.065-5.181-2.272-7.146-0.907c-0.984-0.173-1.951,0.1-2.803,0.788c-2.158,1.689-4.304,3.394-6.449,5.099l-1.063,0.822 c-4.06,3.016-8.118,6.032-12.168,9.061c0.198-0.277,0.398-0.553,0.602-0.827c7.617-10.07,16.532-19.354,25.153-28.331 c4.083-4.251,8.305-8.648,12.329-13.066c0.647-0.684,0.979-1.611,0.934-2.609c-0.048-1.047-0.509-2.029-1.263-2.692 c-1.521-1.34-3.841-1.196-5.285,0.33l-2.195,2.359c-2.946,3.17-5.994,6.449-9.065,9.596c-1.124,1.183-2.252,2.365-3.381,3.547 c-10.798,11.309-21.962,23.002-30.138,36.654c-1.481,2.404-2.849,4.921-4.172,7.355l-0.291,0.534 c-7.768,6.244-15.696,12.886-23.565,19.742C185.429,131.413,179.775,136.878,174.942,141.597z M312.286,345.122 c-1.243-0.355-2.455-0.028-3.415,0.914c-7.57,6.395-16.07,11.839-24.291,17.104l-1.379,0.883 c-32.463,20.059-68.337,34.434-106.628,42.725c-8.559-8.463-19.702-19.665-30.191-31.438c-24.18-26.787-46.522-57.996-70.316-98.221 c-0.384-0.624-0.938-1.123-1.599-1.442l-0.227-0.11l-0.108,0.228c-1.238,2.6-2.479,5.195-3.72,7.792l-2.518,5.273l-1.955,4.866 c-0.006,0.016-0.013,0.032-0.019,0.048l0,0l-0.167,0.415l0.002,0.001l-0.613,1.533c-0.981,2.456-1.963,4.912-2.953,7.379 c-1.297,3.934-2.594,7.863-3.895,11.797c-0.118,0.362-0.243,0.723-0.368,1.085c-0.259,0.751-0.526,1.527-0.737,2.307l-1.617,5.984 c-0.249,0.923-0.507,1.845-0.765,2.767c-0.691,2.47-1.406,5.023-1.931,7.577l-2.573,12.587l-1.754,12.925 c-0.118,0.861-0.164,1.747-0.208,2.604c-0.021,0.412-0.042,0.824-0.072,1.232l-0.491,6.731c-0.05,0.666-0.101,1.354-0.111,2.035 l-0.061,3.257c-0.041,2.191-0.082,4.382-0.126,6.578l0.026,2.941c0.018,1.961,0.035,3.923,0.056,5.883 c0.017,1.979,0.102,3.987,0.184,5.929c0.036,0.844,0.071,1.688,0.102,2.531c0.159,4.567,0.64,9.195,1.092,13.234l0.141,0.377 c0.307,0.771,0.634,1.531,0.961,2.292l0.29,0.675l0.109,0.034c1,0.315,2.003,0.616,3.01,0.91l-0.001,0.007l0.784,0.216 c0.777,0.216,1.58,0.438,2.386,0.604l0.611,0.123c1.391,0.28,2.779,0.56,4.185,0.817c10.833,1.37,20.608,2.186,29.878,2.494 c4.962,0.238,10.048,0.359,15.118,0.359c46.147,0,93.917-10.142,138.147-29.33c27.572-12.121,50.311-25.598,69.526-41.21 c0.996-0.927,1.383-2.11,1.09-3.331C314.843,346.715,313.682,345.521,312.286,345.122z M102.725,139.435 c1.269-0.539,2.467-1.047,3.282-1.579c6.275-3.137,13.694-6.783,21.335-10.146c1.843-0.823,3.737-1.612,5.568-2.375l1.548-0.646 c0.914-0.364,1.837-0.386,2.678-0.066c1.626,0.014,3.024,0.944,3.487,2.325c2.526,8.073,3.921,16.578,5.271,24.804 c0.496,3.02,1.008,6.143,1.568,9.191c0.154,1.299-0.253,2.436-1.144,3.216c-0.912,0.799-2.263,1.133-3.483,0.879 c-0.393,0.463-0.859,0.811-1.388,1.036c-4.154,1.772-8.177,3.589-11.958,5.401c-5.367,2.771-11.773,5.986-18.536,8.799 c-0.585,0.223-1.155,0.492-1.759,0.778c-1.425,0.673-2.892,1.366-4.454,1.366c-0.278,0-0.559-0.022-0.843-0.07 c-2.19-0.55-2.932-2.438-2.708-4.085c-1.992-7.644-3.213-15.456-4.146-22.091l-0.002-0.025c-0.033-0.898-0.242-2.033-0.463-3.233 c-0.376-2.038-0.802-4.344-0.471-6.152C94.587,142.888,99.097,140.974,102.725,139.435z M103.598,147.38 c0.174,0.996,0.219,2.091,0.263,3.153c0.061,1.463,0.117,2.845,0.488,3.892c1.014,7.387,2.096,13.455,3.412,19.111 c5.433-2.303,10.81-4.969,16.014-7.549c1.596-0.791,3.192-1.582,4.791-2.364c0.999-0.306,2.325-0.999,3.729-1.732 c2.381-1.243,5.067-2.645,7.292-2.864c-0.484-3.005-1.057-6.044-1.612-8.985c-0.653-3.462-1.328-7.042-1.861-10.586 c-0.555-2.687-1.035-4.768-1.542-6.685c-9.253,3.898-18.551,8.464-27.544,12.881l-1.532,0.751 C104.889,146.643,104.236,147.012,103.598,147.38z M114.972,158.699l-0.005-0.002c-2.658-1.128-5.287,0.483-6.29,2.692 c-0.74,1.629-0.662,3.99,2,5.281c0.534,0.242,1.076,0.351,1.606,0.351c1.924,0,3.706-1.435,4.499-3.187 C117.53,162.182,117.505,159.845,114.972,158.699z M125.691,154.212l-0.002-0.001c-1.295-0.734-2.695-0.724-3.942,0.027 c-1.347,0.812-2.222,2.353-2.178,3.835c0.039,1.307,0.773,2.402,2.061,3.078c0.622,0.36,1.245,0.519,1.84,0.519 c1.438,0,2.714-0.923,3.428-2.156C127.859,157.854,127.891,155.486,125.691,154.212z M108.527,154.798 c0.441,0.171,0.89,0.256,1.329,0.256c0.48,0,0.947-0.102,1.375-0.306c2.08-0.935,4.235-1.803,6.32-2.642 c1.48-0.596,3.012-1.212,4.502-1.847c3.751-1.551,7.512-2.933,11.017-4.195c0.879-0.317,1.587-0.994,1.993-1.904 c0.43-0.965,0.459-2.054,0.077-2.992c-0.398-0.925-1.033-1.562-1.887-1.892c-2.497-0.963-6.372,0.8-9.791,2.356 c-1.609,0.733-3.13,1.425-4.196,1.663l-0.082,0.035c-1.016,0.663-2.732,1.236-4.548,1.844c-3.313,1.108-7.069,2.364-8.207,4.673 c-0.421,0.855-0.456,1.807-0.099,2.841C106.709,153.623,107.53,154.411,108.527,154.798z M74.596,81.042 c0.391,1.119,1.212,2.026,2.322,2.565c0.677,0.329,1.415,0.494,2.15,0.494c0.541,0,1.08-0.09,1.591-0.271 c5.932,1.438,9.11-4.994,11.431-9.697c0.397-0.805,0.773-1.566,1.154-2.28c0.244-0.703,0.599-1.466,0.975-2.274 c1.315-2.83,2.949-6.344-0.077-8.638c-0.116-1.401-0.901-2.519-2.168-3.078c-1.459-0.645-3.28-0.414-4.579,0.57 c-1.896-0.826-4.255-0.309-6.837,1.5c-4.764,3.335-9.701,10.902-9.167,16.428C71.602,78.548,72.709,80.165,74.596,81.042z M150.876,96.534c0.839,0.641,1.708,1.304,2.384,2.071l0.015,0.015c6.003,5.727,11.459,12.665,16.217,20.625 c0.755,1.238,2.043,1.935,3.348,1.935c0.597,0,1.197-0.146,1.751-0.453c1.035-0.671,1.65-1.508,1.828-2.488 c0.411-2.268-1.544-4.91-3.269-7.24c-0.8-1.082-1.556-2.103-1.998-2.993c-5.396-7.639-11.404-14.111-17.848-19.227 c-1.191-1.055-2.892-1.162-4.333-0.269c-1.449,0.896-2.118,2.476-1.694,4.05C147.947,94.298,149.436,95.435,150.876,96.534z M168.737,75.065l0.002,0.001c1.173,0.727,2.24,1.651,3.271,2.546c0.272,0.236,0.545,0.473,0.804,0.692 c6.249,6.244,11.794,12.964,16.482,19.971c0.642,0.988,1.709,1.537,2.909,1.537c0.302,0,0.612-0.035,0.926-0.105 c1.574-0.357,2.715-1.535,2.906-2.994c0.703-4.418-18.617-25.789-23.329-28.011c-2.177-1.306-4.183-0.251-5.124,1.279 C166.656,71.493,166.619,73.729,168.737,75.065z M68.893,170.179c0.501,0,0.999-0.096,1.456-0.27 c1.735-0.659,3.055-2.517,2.219-4.791l-0.001-0.002c-1.771-4.645-2.664-9.879-2.729-16l0.011-1.68 c0.028-4.854,0.057-9.874,0.763-14.733c0.416-2.47-1.27-3.932-3.011-4.244c-1.831-0.331-3.923,0.586-4.382,2.993 c-1.301,12.111-1.917,24.898,2.351,36.364C66.234,169.51,67.574,170.179,68.893,170.179z M46.333,161.226 c-1.268-9.025-0.981-18.126,0.83-26.318c1.058-1.99,0.083-3.869-1.28-4.78c-1.375-0.917-3.503-1.09-4.938,0.697l-0.034,0.057 c-3.931,9.014-3.486,26.175-0.819,36.903c0.226,0.959,0.827,1.78,1.693,2.311c0.604,0.371,1.296,0.564,1.983,0.564 c0.286,0,0.571-0.034,0.849-0.102c3.728-1.031,2.846-4.582,2.138-7.434C46.585,162.443,46.426,161.799,46.333,161.226z M183.14,180.367c-1.221-0.351-2.43-0.024-3.403,0.922l-0.005,0.005c-6.607,6.787-12.233,12.079-17.694,16.646 c-0.209,0.155-0.431,0.314-0.659,0.479c-2.286,1.643-5.415,3.892-3.208,7.06c0.582,0.802,1.454,1.33,2.456,1.487 c0.203,0.032,0.406,0.048,0.607,0.048c0.786,0,1.542-0.242,2.178-0.703c7.525-5.56,14.239-12.3,20.731-18.818l0.752-0.756 c1-0.942,1.383-2.151,1.08-3.402C185.639,181.952,184.5,180.759,183.14,180.367z M178.354,220.814 c-2.337,2.614-4.986,5.576-4.799,8.066c0.067,0.896,0.5,1.682,1.285,2.332l0.023,0.018c0.811,0.527,1.575,0.758,2.298,0.758 c2.679,0,4.804-3.155,6.728-6.01c0.967-1.436,1.881-2.792,2.797-3.619c4.105-5.258,8.399-10.966,12.01-17.115 c0.348-0.846,0.954-1.878,1.596-2.972c1.591-2.711,3.395-5.784,2.748-8.228c-0.265-1.002-0.936-1.82-2.017-2.441 c-0.92-0.404-2.003-0.407-2.973-0.009c-0.924,0.379-1.625,1.07-1.975,1.947c-3.408,8.682-9.109,16.125-14.646,23.362 C180.886,217.983,179.656,219.358,178.354,220.814z M234.014,304.677c1.091-0.403,1.885-1.197,2.236-2.235 c1.248-3.274-4.76-7.647-10.06-11.506c-2.385-1.735-4.638-3.375-5.683-4.579l-3.585-3.292c-7.46-6.847-15.174-13.926-22.493-21.115 c-0.711-0.902-2.593-2.884-4.904-2.116c-1.143-0.741-2.441-2.119-3.813-3.574c-2.967-3.147-6.325-6.704-9.46-5.204 c-1.521-1.29-3.675-1.339-5.079-0.092c-0.793,0.705-1.217,1.524-1.258,2.437c-0.05,1.115,0.477,2.248,1.205,3.296 c-0.666-0.493-1.351-0.929-2.098-1.282c-1.423-0.757-3.122-0.459-4.328,0.756c-1.189,1.198-1.467,2.879-0.702,4.291 c1.794,2.948,3.958,5.732,6.05,8.425c0.485,0.624,0.969,1.248,1.45,1.873c-0.091-0.066-0.183-0.133-0.276-0.201 c-1.783-1.302-3.795-2.771-6.01-1.732c-0.922-1.028-2.138-1.47-3.442-1.241c-1.422,0.248-2.693,1.292-3.162,2.599 c-0.432,1.202-0.159,2.46,0.78,3.553c1.168,1.205,2.323,2.424,3.479,3.644c0.626,0.66,1.252,1.321,1.881,1.98 c-0.133,2.615,3.101,5.041,6.23,7.388c1.667,1.25,3.242,2.431,4.147,3.554c8.931,7.806,17.733,15.355,27.208,21.925 c0.616,0.438,1.314,0.654,2.021,0.654c0.848,0,1.708-0.312,2.45-0.928c1.258-1.043,1.708-2.586,1.194-4.002 c1.517-0.405,2.488-1.452,2.683-2.909c0.245-1.842-0.82-3.819-2.546-4.763c-0.002-0.736-0.22-1.438-0.634-2.039l-0.156-0.228 c-0.012-0.017-0.023-0.033-0.034-0.05c1.43,1.105,2.857,2.302,4.248,3.467c4.361,3.654,8.871,7.434,14.106,9.103l0.049,0.016 l0.052-0.005c1.804-0.181,3.312-1.049,4.139-2.384c0.66-1.065,0.812-2.343,0.443-3.639 C231.464,305.047,232.835,305.111,234.014,304.677z" style="fill: rgb(234, 82, 120);"/></g><g id="__id154_sd1kdtvsg4"><path d="M252.809,254.538l-0.007-0.012c-1.892-3.642-4.062-7.209-6.453-10.604c0.826-1.66,1.468-3.348,1.944-4.601 l0.06-0.16c2.18-6.972,2.325-14.59,0.422-22.028c-0.47-2.095-2.557-3.427-4.667-2.963c-3.835,0.999-3.045,4.59-2.41,7.478 c0.158,0.72,0.308,1.399,0.384,2.012c1.391,9.438-1.818,14.767-3.942,18.294c-0.866,1.438-1.553,2.577-1.784,3.669l-0.042,0.04 c-2.069,1.917-4.709,3.161-6.514,3.93c-2.241,0.954-4.925,1.602-8.206,1.979c-1.341,0.154-2.714,0.231-4.08,0.231 c-4.39,0-8.942-0.798-13.167-2.309c-0.5-0.178-0.981-0.376-1.471-0.579c-0.257-0.253-0.518-0.454-0.788-0.609 c-2.728-1.795-5.556-3.523-8.294-5.195c-1.197-0.731-2.395-1.464-3.547-2.174l-0.352-0.281c-2.048-1.674-4-3.524-5.888-5.315 l-1.051-0.994c-0.659-0.62-1.3-1.246-1.842-1.779c-0.189-0.334-0.422-0.637-0.688-0.894c-6.557-7.154-12.985-15.209-20.224-25.345 l-0.067-0.104c-1.882-3.274-3.531-5.917-5.206-8.335c-0.133-0.139-0.267-0.295-0.364-0.408c-0.802-1.381-1.489-2.386-2.15-3.145 c-0.425-0.651-0.932-1.409-1.475-2.112c-0.053-0.259-0.125-0.491-0.232-0.737c-0.961-1.724-2.399-2.465-4.264-2.213 c-0.593,0.005-1.211,0.167-1.771,0.461c-1.557,0.587-3.135,1.582-4.556,2.478c-0.674,0.425-1.31,0.826-1.881,1.137 c-4.507,2.814-9.754,6.237-14.502,10.287c-1.487,1.28-2.988,2.594-4.462,3.885c-2.81,2.461-5.715,5.006-8.69,7.449 c-0.597,0.636-1.495,1.364-2.446,2.135c-0.94,0.762-1.998,1.618-2.912,2.514c-0.694-3.198-1.293-6.438-1.783-9.633 c0.065-0.466,0.052-0.909-0.04-1.351c-0.113-0.611-0.229-1.222-0.345-1.833l-0.215-1.132l-0.044-0.323 c-0.016-0.111-0.032-0.222-0.044-0.321c-0.032-0.333-0.105-0.66-0.211-0.951c-1.875-9.914-3.902-19.968-5.865-29.703l-0.028-0.14 c-1.887-9.36-3.838-19.04-5.651-28.586c-0.531-2.567-2.731-3.353-4.546-2.994c-1.891,0.373-3.563,2.041-3.101,4.509 c1.862,9.868,3.872,19.827,5.816,29.459c2.006,9.938,4.081,20.214,5.992,30.391c0.811,6.306,2,12.7,3.537,19.002 c0.599,2.478,2.757,3.246,4.518,2.909l0.017,0.005c0.137,0.038,0.259,0.07,0.354,0.081c1.233,0.313,2.529-0.091,3.474-1.086 c1.596-0.281,2.899-1.688,4.172-3.061c0.71-0.766,1.381-1.489,2.087-1.988c2.699-2.213,5.382-4.545,7.981-6.803 c7.317-6.357,14.882-12.929,23.508-17.529c0.397,0.491,0.803,0.975,1.208,1.459c0.669,0.8,1.362,1.626,2.005,2.475 c0.122,0.157,0.24,0.316,0.358,0.476l0.247,0.33c0.519,0.749,1.046,1.475,1.556,2.177l0.034,0.047 c1.076,1.482,2.005,2.763,2.482,3.729c0.147,0.21,0.295,0.419,0.444,0.628l0.325,0.456c1.522,2.637,3.018,5.349,4.465,7.972 c0.605,1.098,1.211,2.194,1.82,3.29c-21.505,10.976-31.49,37.864-33.505,57.584c-2.214,15.331,2.328,31.01,12.791,44.15 c10,12.559,24.452,21.35,39.648,24.118c3.623,0.766,7.34,1.154,11.047,1.154c21.888,0,43.833-13.251,57.271-34.582 C259.379,294.362,261.495,272.687,252.809,254.538z M206.595,307.128c-0.674,0.854-1.75,1.362-2.877,1.362 c-0.815,0-1.566-0.262-2.172-0.757c-1.54-1.267-3.174-2.63-5.143-4.292c-1.441-1.211-2.881-2.426-4.319-3.642l-2.118-1.787 l-0.021-0.018l-0.099-0.087c-0.59-0.498-1.181-0.994-1.772-1.491l-2.102-1.76c-1.471-1.228-3.095-2.551-5.111-4.165l-0.928-0.833 l-0.019,0.074l-0.968-0.777c-1.504-1.195-3.004-2.391-4.504-3.586c-0.169-0.135-0.335-0.273-0.5-0.411l-0.324-0.269 c-0.896-0.74-1.65-1.391-2.374-2.049c-1.274-1.166-2.496-2.51-3.951-4.344l-0.044-0.068c-0.142-0.184-0.257-0.372-0.344-0.56 c-0.023-0.05-0.038-0.103-0.055-0.164c-0.014-0.047-0.028-0.095-0.044-0.141l-0.05-0.143c-0.026-0.071-0.053-0.142-0.068-0.215 c-0.016-0.077-0.021-0.156-0.027-0.24l-0.028-0.271c-0.008-0.062-0.017-0.126-0.017-0.189c0-0.087,0.011-0.173,0.023-0.272 l0.025-0.262c0.004-0.059,0.008-0.116,0.019-0.173c0.182-0.954,0.709-1.804,1.447-2.33c0.754-0.541,1.718-0.772,2.638-0.629 c0.921,0.145,1.727,0.643,2.393,1.479c0.08,0.105,0.163,0.209,0.247,0.314l0.244,0.294c0.137,0.158,0.276,0.313,0.416,0.469 l0.368,0.411c0.101,0.115,0.202,0.23,0.306,0.343c0.441,0.479,0.846,0.895,1.241,1.28l0.204,0.178 c0.248,0.221,0.496,0.442,0.747,0.662l0.222,0.185l-0.002,0.005l0.343,0.288c0.705,0.601,1.4,1.177,2.077,1.721l0.17,0.115 c0.81,0.651,1.623,1.298,2.436,1.943l0.105,0.084c0.655,0.521,1.309,1.041,1.96,1.563c2.317,1.859,5.053,4.066,7.767,6.338 c2.017,1.688,4.025,3.386,6.034,5.086l3.751,3.171c0.523,0.441,1.045,0.883,1.572,1.322l1.008,0.827 c0.537,0.45,1.073,0.9,1.614,1.345C207.523,303.332,207.794,305.603,206.595,307.128z M227.474,302.514L227.474,302.514 c-0.679,0.759-1.614,1.176-2.636,1.176c-0.891,0-1.763-0.322-2.457-0.91c-4.701-3.954-9.352-8.06-13.849-12.03l-3.9-3.396 c-2.842-2.476-5.682-4.952-8.521-7.43c-2.031-1.771-4.061-3.544-6.088-5.319c-2.411-2.111-4.822-4.227-7.229-6.353l-0.104-0.091 c-0.055-0.05-0.111-0.099-0.167-0.146l-0.121-0.24l-0.048,0.096c-0.408-0.353-0.814-0.706-1.222-1.062l-1.359-1.18v0.001 c-1.616-1.396-3.353-2.854-5.169-4.171l0.001-0.001l-0.209-0.166c-0.919-0.591-1.481-1.314-1.72-2.213 c-0.244-0.908-0.118-1.895,0.344-2.707c0.478-0.842,1.36-1.491,2.361-1.737c0.909-0.227,1.807-0.097,2.528,0.368 c1.161,0.749,2.245,1.611,3.243,2.432c0.272,0.224,0.544,0.449,0.814,0.674l0.129,0.107c0.317,0.264,0.634,0.527,0.952,0.788 c1.553,1.271,3.078,2.609,4.633,3.982l9.944,8.779c1.19,1.033,2.382,2.064,3.574,3.095l1.396,1.208 c1.727,1.495,3.454,2.99,5.178,4.488l2.363,2.053c1.827,1.595,3.646,3.199,5.464,4.804l0.416,0.366 c2.483,2.191,4.561,4.023,6.711,5.896l-0.003,0.003l0.172,0.145h-0.001l0.106,0.092c0.085,0.073,0.174,0.147,0.26,0.216l0.027,0.021 c1.046,0.881,2.096,1.759,3.145,2.635l0.78,0.652c0.682,0.569,1.095,1.405,1.163,2.354 C228.447,300.806,228.118,301.797,227.474,302.514z M100.194,114.302c12.413-0.003,25.767-7.683,33.227-19.104 c9.136-13.125,6.596-31.433-5.785-41.681c-10.311-8.288-25.185-5.998-35.86-2.609c-0.077-0.016-0.152-0.029-0.228-0.041 l-0.117-0.018l-0.672,0.303c-2.19,0.99-4.455,2.014-6.725,3.088c-0.487,0.344-0.875,0.589-1.271,0.803 c-6.341,4.406-11.054,10.556-13.623,17.772c-3.357,7.188-3.187,15.287,0.479,22.806c4.274,8.765,12.624,15.332,22.327,17.565 C94.622,113.927,97.397,114.302,100.194,114.302z M88.71,67.217v0.001c-0.161,1.485-0.54,3.144-1.159,5.069 c-1.026,3.198-2.276,6.441-5.23,7.899c-0.585,0.288-1.273,0.44-1.991,0.44c-0.959,0-1.884-0.267-2.604-0.751 c-0.741-0.501-1.284-1.044-1.711-1.708c-0.393-0.615-0.651-1.382-0.814-2.416c-0.202-1.236,0.065-2.479,0.38-3.751 c0.231-0.943,0.554-1.871,0.958-2.754l0.035-0.073c0.227-0.593,0.502-1.214,0.84-1.899c0.782-1.584,1.89-3.051,3.041-4.024 c1.332-1.126,2.636-1.678,3.975-1.678c0.136,0,0.272,0.006,0.41,0.017c1.449,0.119,2.835,1.056,3.449,2.333 C88.732,64.846,88.862,65.862,88.71,67.217z M167.039,129.862c-2.15-3.001,0.214-5.141,2.299-7.029 c0.789-0.714,1.534-1.388,2.03-2.081c3.942-4.7,7.575-9.511,11.089-14.164c11.167-14.031,20.145-29.895,28.826-45.235l0.453-0.799 c0.229-1.07,0.838-2.237,1.81-3.469c0.882-1.896,1.533-4.186,2.028-7.177v-0.117c0.127-4.271,0.271-9.106-3.036-12.078 c-5.083-3.069-11.819-1.528-15.309,3.526c-1.726,2.028-4.049,1.656-5.482,0.457c-1.423-1.191-2.197-3.394-0.535-5.418 c1.92-2.253,4.935-5.409,8.957-6.823c11.417-3.068,17.07,1.043,19.805,5.03c5.553,8.097,3.573,22.253-0.472,27.875 c-0.098,0.382-0.225,0.706-0.399,1.018c-4.37,7.774-7.973,14.038-11.338,19.712c-7.484,12.985-16.288,24.744-23.122,33.537 c-2.3,3.044-5.375,7.017-8.75,10.738c-0.501,0.598-1.001,1.14-1.486,1.609c0.268,0.476,0.428,1.007,0.477,1.582 c0.316,3.421,0.818,6.829,1.349,10.31c1.497,9.327,3.544,19.442,6.441,31.826c8.258,7.709,15.69,14.696,22.958,22.073 c3.737-1.915,8.093-2.968,12.279-2.968h0.1c4.802,0.032,9.835,2.229,14.172,6.187c0.556,0.574,1.293,1.17,2.073,1.801 c2.023,1.637,4.318,3.491,4.492,5.696c0.082,1.033-0.32,2.049-1.195,3.019c-3.154,2.553-6.396-0.597-9.534-3.646 c-2.027-1.969-4.122-4.003-6.073-4.401c-6.005-2.208-13.717,0.169-17.962,5.524c-0.653,0.775-1.084,1.938-1.501,3.063 c-0.813,2.197-1.651,4.462-4.147,4.462c-0.411,0-0.854-0.065-1.325-0.193c-1.123-0.372-1.894-1.029-2.299-1.954 c-0.644-1.465-0.36-3.564,0.844-6.24c0.878-2.044,2.139-3.946,3.745-5.652c-5.03-5.05-10.263-10.146-15.556-15.148 c-0.918-1.059-2.067-2.001-3.179-2.912c-1.204-0.986-2.444-2.001-3.426-3.171c-0.901-0.503-1.508-1.352-1.758-2.455 c-3.317-14.188-6.688-29.313-8.262-44.496c-0.044-0.429-0.021-0.839,0.069-1.253C167.138,129.975,167.088,129.922,167.039,129.862z M138.031,102.828c3.094-3.325,5.667-7.31,7.651-11.848c1.227-2.788,1.975-5.817,2.699-8.746l0.034-0.139 c0.128-0.518,0.255-1.034,0.386-1.55c0.689-2.538,2.94-3.191,4.739-2.722c1.797,0.465,3.444,2.127,2.814,4.675 c-1.857,8.349-4.423,14.677-8.076,19.91c-1.771,2.709-3.907,5.041-5.763,6.963c-0.244,0.242-0.493,0.502-0.752,0.772 c-1.489,1.551-3.342,3.481-5.384,3.481c-0.897,0-1.757-0.383-2.558-1.139c-0.817-0.859-1.205-1.768-1.169-2.715 c0.077-2.033,2.021-3.79,3.735-5.341l0.007-0.006C137.031,103.847,137.632,103.303,138.031,102.828z M174.196,46.57l-0.001-0.526 c0.014-2.886,0.036-7.246,2.248-9.026c0.895-0.719,2.053-0.934,3.44-0.637c3.3,1.127,2.802,4.007,2.363,6.548 c-0.19,1.1-0.388,2.236-0.275,3.17c0.108,2.211,0.355,4.476,0.779,7.138c0.239,1.522-0.552,3.017-2.014,3.81 c-0.622,0.337-1.304,0.515-1.973,0.515c-0.898,0-1.75-0.322-2.398-0.906l-0.013-0.013c-1.708-1.969-1.823-4.629-1.934-7.203 C174.371,48.418,174.329,47.465,174.196,46.57z M73.169,168.947c0.074,1.085-0.311,2.164-1.053,2.976 c-0.697,0.763-1.616,1.197-2.588,1.221c-2.509,0.064-5.204,0.124-7.907,0.124c-5.306,0-9.643-0.236-13.649-0.744 c-7.814-0.989-14.854-1.949-21.881-3.685c-1.377-0.243-2.386-1.077-2.829-2.345c-0.494-1.412-0.165-3.11,0.818-4.225 c0.878-0.996,2.125-1.382,3.506-1.084c12.16,2.774,22.995,4.173,33.126,4.278l0.05,0.004c1.099,0.184,2.485,0.064,3.952-0.06 l0.02,0.149l-0.013-0.149C68.328,165.1,72.416,164.752,73.169,168.947z" style="fill: rgb(30, 30, 30);"/></g></svg>